# xmcd
#
# Track frame offsets:
#	183
#	12033
#	25345
#	37395
#	49933
#	83508
#	100508
#	116808
#	132558
#	149683
#	163883
#	175633
#	187595
#	200170
#	214620
#	227983
#	247558
#	261970
#	276058
#	291820
#
# Disc length: 4062 seconds
# Revision: 2
# Processed by: cddbd v1.5.2PL0 Copyright (c) Steve Scherf et al.
# Submitted via: dBpowerAMP V12.0
#
DISCID=1f0fdc14
DTITLE=Various Artist - The Real Blues Ballads - Vol 1
DYEAR=1991
DGENRE=Blues
TTITLE0=Etta James - I'd Rather Go Blind
TTITLE1=Howlin' Wolf - I've Got a Woman
TTITLE2=Little Walter - Temperature
TTITLE3=Bo Diddley - I'm a Man
TTITLE4=Buddy Guy - Stone Crazy
TTITLE5=Little Milton - Please, Please, Please
TTITLE6=Memphis Slim - Trouble in My Mind
TTITLE7=John Lee Hooker - Hey Baby
TTITLE8=Howlin' Wolf - The Red Rooster
TTITLE9=Muddy Waters - Forty Days and Forty Nights
TTITLE10=Jimmy McCracklin - Minnie Lee
TTITLE11=Paul Gayten - Down Boy
TTITLE12=J.B. Lenoir - Korea Blues
TTITLE13=Lowell Fulson - Reconsider Baby
TTITLE14=Jimmy Rogers - Left Me With a Broken Heart
TTITLE15=Koko Taylor - Insane Asylum
TTITLE16=Muddy Waters - I Feel Like Going Home
TTITLE17=Big Bill Broonzy - Romance Without Finance
TTITLE18=Bo Diddley - Cops and Robbers
TTITLE19=John Lee Hooker - Hobo Blues
EXTD=
EXTT0=
EXTT1=
EXTT2=
EXTT3=
EXTT4=
EXTT5=
EXTT6=
EXTT7=
EXTT8=
EXTT9=
EXTT10=
EXTT11=
EXTT12=
EXTT13=
EXTT14=
EXTT15=
EXTT16=
EXTT17=
EXTT18=
EXTT19=
PLAYORDER=
